<?xml version="1.0" encoding="utf-8"?>
<!-- Generator: Adobe Illustrator 18.0.0, SVG Export Plug-In . SVG Version: 6.00 Build 0)  -->
<!DOCTYPE svg PUBLIC "-//W3C//DTD SVG 1.1//EN" "http://www.w3.org/Graphics/SVG/1.1/DTD/svg11.dtd">
<svg version="1.1" id="Layer_1" xmlns="http://www.w3.org/2000/svg" xmlns:xlink="http://www.w3.org/1999/xlink" x="0px" y="0px"
	 viewBox="0 0 720 540" enable-background="new 0 0 720 540" xml:space="preserve">
<g>
	<g>
		<polyline fill="#FBB317" points="311.7,311.3 359.5,287.4 407.9,311.3 359.8,182.8 		"/>
	</g>
	<g>
		<polyline fill="#DB1868" points="351.1,139.8 359.8,158.4 359.8,158.4 368.4,139.8 		"/>
	</g>
	<g>
		<polyline fill="#DB1868" points="368.4,364.1 359.8,342.4 359.8,342.4 351.1,364.1 		"/>
	</g>
	<g>
		<polyline fill="#DB1868" points="248.8,260.3 266.6,251.7 266.6,251.7 248.8,243.1 		"/>
	</g>
	<g>
		<polyline fill="#DB1868" points="471,243.1 453.3,251.7 453.3,251.7 471,260.3 		"/>
	</g>
	<g>
		<path fill="#DC1769" d="M359.8,389.7c-75.8,0-137.4-61.9-137.4-138c0-76.1,61.7-138,137.4-138c75.8,0,137.5,61.9,137.5,138
			C497.3,327.8,435.6,389.7,359.8,389.7z M359.8,140.5c-61.1,0-110.7,49.9-110.7,111.2c0,61.3,49.7,111.2,110.7,111.2
			c61.1,0,110.8-49.9,110.8-111.2C470.5,190.4,420.9,140.5,359.8,140.5z"/>
	</g>
	<g>
		<path fill="#DC1769" d="M359.6,404.8L359.6,404.8c-84.3-0.1-152.9-69-152.9-153.6c0-84.7,68.6-153.6,152.9-153.6
			s152.9,68.9,152.9,153.6C512.5,335.9,443.9,404.8,359.6,404.8z M359.6,102c-81.9,0-148.5,66.9-148.5,149.2
			c0,82.2,66.6,149.1,148.5,149.2c81.9,0,148.5-66.9,148.5-149.2S441.5,102,359.6,102z"/>
	</g>
	<g>
		<path fill="#DC1769" d="M513.7,143.3c-20.9,0-37.9-17-37.9-38s17-38,37.9-38c20.9,0,37.9,17,37.9,38S534.6,143.3,513.7,143.3z
			 M513.7,74.3c-17,0-30.9,13.9-30.9,31s13.9,31,30.9,31s30.9-13.9,30.9-31S530.7,74.3,513.7,74.3z"/>
	</g>
	<g>
		<path fill="#DC1769" d="M513.7,131.3c-14.3,0-25.9-11.7-25.9-26s11.6-26,25.9-26s25.9,11.7,25.9,26S528,131.3,513.7,131.3z
			 M513.7,82.3c-12.6,0-22.9,10.3-22.9,23s10.3,23,22.9,23s22.9-10.3,22.9-23S526.3,82.3,513.7,82.3z"/>
	</g>
	<g>
		<path fill="#DC1769" d="M539.6,376.5c-17.7,0-32.1-14.5-32.1-32.4c0-17.9,14.5-32.4,32.3-32.4s32.3,14.5,32.3,32.4
			s-14.5,32.4-32.3,32.4L539.6,376.5z M539.8,317.7c-14.5,0-26.3,11.8-26.3,26.4c0,14.6,11.7,26.4,26.1,26.4l0.2,0
			c14.5,0,26.3-11.8,26.3-26.4C566.1,329.5,554.3,317.7,539.8,317.7z"/>
	</g>
	<g>
		<path fill="#DC1769" d="M539.5,366.6c-12,0-21.8-9.9-21.8-22.1c0-12.2,9.9-22.1,22-22.1s22,9.9,22,22.1s-9.9,22.1-22,22.1
			L539.5,366.6z M539.7,324.4c-11,0-20,9-20,20.1s8.9,20.1,19.8,20.1l0.2,0c11,0,20-9,20-20.1S550.7,324.4,539.7,324.4z"/>
	</g>
	<g>
		<path fill="#DC1769" d="M137.6,395.5c-31.2,0-56.6-25.5-56.6-56.8s25.4-56.8,56.6-56.8s56.6,25.5,56.6,56.8
			S168.8,395.5,137.6,395.5z M137.6,291.9c-25.7,0-46.6,21-46.6,46.8s20.9,46.8,46.6,46.8s46.6-21,46.6-46.8
			S163.3,291.9,137.6,291.9z"/>
	</g>
	<g>
		<path fill="#DC1769" d="M138,380.7c-22.9,0-41.5-18.7-41.5-41.7s18.6-41.7,41.5-41.7s41.5,18.7,41.5,41.7S160.9,380.7,138,380.7z
			 M138,300.3c-21.2,0-38.5,17.4-38.5,38.7s17.3,38.7,38.5,38.7s38.5-17.4,38.5-38.7S159.2,300.3,138,300.3z"/>
	</g>
	<g>
		
			<rect x="492.8" y="322.3" transform="matrix(0.8935 0.449 -0.449 0.8935 199.9275 -191.5594)" fill="#DC1769" width="22" height="7"/>
	</g>
	<g>
		
			<rect x="198.1" y="292.3" transform="matrix(0.3979 0.9174 -0.9174 0.3979 407.5778 2.1512)" fill="#DC1769" width="8" height="38.7"/>
	</g>
	<g>
		
			<rect x="474.1" y="122.9" transform="matrix(0.6688 0.7434 -0.7434 0.6688 259.0068 -310.1936)" fill="#DC1769" width="7" height="25.4"/>
	</g>
</g>
<g>
	<path d="M183.9,492v-41.5h9v3.5h0.1c0.8-1.5,1.7-2.5,2.8-3.2s2.3-1,3.8-1c2,0,3.5,0.6,4.5,1.8c1,1.2,1.5,2.9,1.5,5.3V492h-9.2
		v-32.2c0-1-0.1-1.6-0.4-2s-0.7-0.5-1.3-0.5s-1,0.2-1.2,0.6c-0.3,0.4-0.4,1-0.4,1.9V492H183.9z"/>
	<path d="M208.3,461.3c0-4.3,0.8-7.3,2.5-9.1c1.7-1.8,4.4-2.7,8.3-2.7c3.8,0,6.6,0.9,8.3,2.7c1.7,1.8,2.5,4.8,2.5,9.1v19.9
		c0,4.3-0.8,7.3-2.5,9.1c-1.7,1.8-4.4,2.7-8.3,2.7c-3.8,0-6.6-0.9-8.3-2.7c-1.7-1.8-2.5-4.8-2.5-9.1V461.3z M217.5,458.5v25.1
		c0,0.9,0.1,1.6,0.4,2c0.3,0.4,0.7,0.6,1.3,0.6s1-0.2,1.3-0.6s0.4-1,0.4-2v-25.1c0-0.9-0.1-1.5-0.4-1.9c-0.3-0.4-0.7-0.6-1.3-0.6
		s-1,0.2-1.2,0.6S217.5,457.6,217.5,458.5z"/>
	<path d="M232.8,492v-41.5h9v3.5h0.1c0.8-1.5,1.7-2.5,2.8-3.2s2.3-1,3.8-1c2,0,3.5,0.6,4.5,1.8c1,1.2,1.5,2.9,1.5,5.3v16h-9.2v-13
		c0-1-0.1-1.6-0.4-2s-0.7-0.5-1.3-0.5s-1,0.2-1.2,0.6c-0.3,0.4-0.4,1-0.4,1.9V492H232.8z"/>
	<path d="M279.4,492h-9v-3.6h-0.1c-0.6,1.5-1.5,2.7-2.5,3.4s-2.4,1.2-4,1.2c-2,0-3.5-0.6-4.4-1.7c-1-1.2-1.5-2.9-1.5-5.3v-29.2
		c0-2.4,0.5-4.1,1.5-5.3s2.5-1.8,4.4-1.8c1.5,0,2.7,0.4,3.8,1.1s1.9,1.8,2.6,3.2h0.1v-13.9h9.1V492z M267,482.9c0,1,0.1,1.6,0.4,2
		s0.7,0.5,1.3,0.5c0.6,0,1-0.2,1.2-0.6c0.3-0.4,0.4-1.1,0.4-1.9v-23.1c0-0.8-0.1-1.5-0.4-1.9s-0.7-0.6-1.2-0.6c-0.6,0-1,0.2-1.3,0.5
		s-0.4,1-0.4,2V482.9z"/>
	<path d="M283,492v-10.6h9.5V492H283z"/>
	<path d="M297.5,492v-34.9h-2.2v-6.6h2.2v-3.9c0-2,0.6-3.6,1.8-4.7c1.2-1.1,2.9-1.7,5.1-1.7h5.2v6.5c-1.1,0-1.8,0.1-2.3,0.4
		c-0.4,0.2-0.7,0.7-0.7,1.3v2.2h3v6.6h-3V492H297.5z"/>
	<path d="M311.3,492v-41.5h9v3.5h0.1c0.8-1.5,1.7-2.5,2.8-3.2c1.1-0.7,2.3-1,3.8-1c2,0,3.5,0.6,4.5,1.8c1,1.2,1.5,2.9,1.5,5.3v16
		h-9.2v-13c0-1-0.1-1.6-0.4-2s-0.7-0.5-1.3-0.5c-0.6,0-1,0.2-1.2,0.6c-0.3,0.4-0.4,1-0.4,1.9V492H311.3z"/>
	<path d="M345.5,483.6c0,0.9,0.1,1.6,0.4,2s0.7,0.6,1.3,0.6c0.6,0,1-0.2,1.3-0.6s0.4-1,0.4-2v-7.8h9.1v7.7c0,3-0.9,5.3-2.8,7
		s-4.5,2.5-8,2.5c-3.9,0-6.6-0.9-8.3-2.7c-1.7-1.8-2.5-4.8-2.5-9.1v-19.9c0-4.4,0.8-7.4,2.5-9.2c1.6-1.8,4.4-2.6,8.3-2.6
		c3.4,0,6.1,0.8,8,2.4s2.9,3.8,2.9,6.6v14.1h-12.4v11H345.5z M345.5,458.5v7.8h3.3v-7.8c0-0.9-0.1-1.6-0.4-2s-0.7-0.6-1.3-0.6
		c-0.6,0-1,0.2-1.3,0.6C345.6,457,345.5,457.6,345.5,458.5z"/>
	<path d="M360.8,448v-7.9h9.1v7.9H360.8z M360.8,492v-41.5h9.1V492H360.8z"/>
	<path d="M374.4,492v-34.9h-2.2v-6.6h2.2v-3.9c0-2,0.6-3.6,1.8-4.7c1.2-1.1,2.9-1.7,5.1-1.7h5.2v6.5c-1.1,0-1.8,0.1-2.3,0.4
		c-0.4,0.2-0.7,0.7-0.7,1.3v2.2h3v6.6h-3V492H374.4z"/>
	<path d="M409.8,450.5V492h-9v-3.4h-0.2c-0.8,1.4-1.7,2.5-2.7,3.1c-1,0.7-2.3,1-3.7,1c-2,0-3.5-0.6-4.5-1.7c-1-1.2-1.5-2.9-1.5-5.2
		v-35.2h9.1v32.2c0,0.9,0.1,1.5,0.4,1.9s0.7,0.5,1.3,0.5c0.6,0,1-0.2,1.2-0.6s0.4-1,0.4-1.9v-32.2L409.8,450.5L409.8,450.5z"/>
	<path d="M412.7,492v-41.5h9v3.5h0.1c0.8-1.5,1.7-2.5,2.8-3.2c1.1-0.7,2.3-1,3.8-1c2,0,3.5,0.6,4.5,1.8c1,1.2,1.5,2.9,1.5,5.3V492
		h-9.2v-32.2c0-1-0.1-1.6-0.4-2s-0.7-0.5-1.3-0.5c-0.6,0-1,0.2-1.2,0.6c-0.3,0.4-0.4,1-0.4,1.9V492H412.7z"/>
	<path d="M437.2,492v-51.9h9.1v28.4h0.1l3.9-18.1h9.4l-4.5,17.9l4.5,23.6h-9.6l-3.6-21.7h-0.1V492H437.2z"/>
	<path d="M461.5,492v-10.6h9.5V492H461.5z"/>
	<path d="M474.7,492v-41.5h9v3.5h0.1c0.8-1.5,1.7-2.5,2.8-3.2s2.3-1,3.8-1c2,0,3.5,0.6,4.5,1.8s1.5,2.9,1.5,5.3V492h-9.2v-32.2
		c0-1-0.1-1.6-0.4-2s-0.7-0.5-1.3-0.5c-0.6,0-1,0.2-1.2,0.6s-0.4,1-0.4,1.9V492H474.7z"/>
	<path d="M508.2,483.6c0,0.9,0.1,1.6,0.4,2s0.7,0.6,1.3,0.6s1-0.2,1.3-0.6s0.4-1,0.4-2v-7.8h9.1v7.7c0,3-0.9,5.3-2.8,7
		s-4.5,2.5-8,2.5c-3.9,0-6.6-0.9-8.3-2.7s-2.5-4.8-2.5-9.1v-19.9c0-4.4,0.8-7.4,2.5-9.2s4.4-2.6,8.3-2.6c3.4,0,6.1,0.8,8,2.4
		s2.9,3.8,2.9,6.6v14.1h-12.4v11H508.2z M508.2,458.5v7.8h3.3v-7.8c0-0.9-0.1-1.6-0.4-2s-0.7-0.6-1.3-0.6s-1,0.2-1.3,0.6
		S508.2,457.6,508.2,458.5z"/>
	<path d="M522.1,457.2v-6.6h2.3v-7.7h9.2v7.7h2.7v6.6h-2.7v25.2c0,1.3,0.2,2.1,0.5,2.4s0.9,0.5,1.9,0.5h0.3v6.7h-5.8
		c-2.2,0-3.8-0.5-4.7-1.5s-1.4-2.9-1.4-5.7v-27.6H522.1z"/>
</g>
</svg>
